<?xml version="1.0" encoding="UTF-8"?>
<svg width="200" height="200" viewBox="0 0 200 200" xmlns="http://www.w3.org/2000/svg">
  <defs>
    <filter id="glow" x="-20%" y="-20%" width="140%" height="140%">
      <feGaussianBlur stdDeviation="2" result="blur" />
      <feComposite in="SourceGraphic" in2="blur" operator="over" />
    </filter>
  </defs>
  
  <g filter="url(#glow)" opacity="0.7">
    <!-- Main diagonal web strand -->
    <path d="M0,0 Q100,10 200,200" fill="none" stroke="#e53935" stroke-width="1.5" />
    
    <!-- Corner web -->
    <path d="M0,0 Q30,30 60,10 Q70,50 90,30 Q100,60 120,50 Q130,80 150,70 Q160,110 180,100 Q190,150 200,200" 
          fill="none" stroke="#e53935" stroke-width="1" />
    
    <!-- Connecting strands -->
    <path d="M0,0 Q10,40 20,80" fill="none" stroke="#e53935" stroke-width="0.7" />
    <path d="M0,0 Q40,20 80,40" fill="none" stroke="#e53935" stroke-width="0.7" />
    <path d="M20,80 Q50,60 80,40" fill="none" stroke="#e53935" stroke-width="0.5" />
    
    <path d="M20,80 Q60,90 110,100" fill="none" stroke="#e53935" stroke-width="0.7" />
    <path d="M80,40 Q95,70 110,100" fill="none" stroke="#e53935" stroke-width="0.5" />
    
    <path d="M110,100 Q140,110 170,120" fill="none" stroke="#e53935" stroke-width="0.7" />
    <path d="M170,120 Q185,160 200,200" fill="none" stroke="#e53935" stroke-width="0.7" />
    
    <!-- Dewdrops -->
    <circle cx="20" cy="80" r="1.5" fill="#e53935" />
    <circle cx="80" cy="40" r="1.5" fill="#e53935" />
    <circle cx="110" cy="100" r="1.5" fill="#e53935" />
    <circle cx="170" cy="120" r="1.5" fill="#e53935" />
  </g>
</svg> 