<?xml version="1.0" encoding="UTF-8"?>
<svg width="100" height="100" viewBox="0 0 100 100" xmlns="http://www.w3.org/2000/svg">
  <defs>
    <filter id="glow" x="-20%" y="-20%" width="140%" height="140%">
      <feGaussianBlur stdDeviation="1.5" result="blur" />
      <feComposite in="SourceGraphic" in2="blur" operator="over" />
    </filter>
  </defs>
  
  <g filter="url(#glow)" fill="#e53935" opacity="0.8">
    <!-- Spider Body -->
    <ellipse cx="50" cy="55" rx="15" ry="20" />
    
    <!-- Spider Head -->
    <circle cx="50" cy="30" r="10" />
    
    <!-- Eyes -->
    <path d="M45,28 Q43,26 41,28 Q43,32 45,30 Z" fill="white" />
    <path d="M55,28 Q57,26 59,28 Q57,32 55,30 Z" fill="white" />
    
    <!-- Legs -->
    <!-- Left Legs -->
    <path d="M40,45 C30,35 15,40 10,50" stroke="#e53935" stroke-width="2" fill="none" />
    <path d="M38,55 C25,55 15,65 8,70" stroke="#e53935" stroke-width="2" fill="none" />
    <path d="M40,65 C30,75 25,80 15,80" stroke="#e53935" stroke-width="2" fill="none" />
    <path d="M45,72 C40,80 45,90 30,90" stroke="#e53935" stroke-width="2" fill="none" />
    
    <!-- Right Legs -->
    <path d="M60,45 C70,35 85,40 90,50" stroke="#e53935" stroke-width="2" fill="none" />
    <path d="M62,55 C75,55 85,65 92,70" stroke="#e53935" stroke-width="2" fill="none" />
    <path d="M60,65 C70,75 75,80 85,80" stroke="#e53935" stroke-width="2" fill="none" />
    <path d="M55,72 C60,80 55,90 70,90" stroke="#e53935" stroke-width="2" fill="none" />
  </g>
</svg> 