<?xml version="1.0" encoding="UTF-8"?>
<svg width="200" height="200" viewBox="0 0 200 200" xmlns="http://www.w3.org/2000/svg">
  <defs>
    <filter id="glow" x="-20%" y="-20%" width="140%" height="140%">
      <feGaussianBlur stdDeviation="2" result="blur" />
      <feComposite in="SourceGraphic" in2="blur" operator="over" />
    </filter>
  </defs>
  
  <g filter="url(#glow)" opacity="0.7">
    <!-- Main web corner structure -->
    <path d="M0,0 L200,200" stroke="#e53935" stroke-width="1" opacity="0.5" />
    <path d="M0,40 L160,200" stroke="#e53935" stroke-width="0.8" opacity="0.4" />
    <path d="M0,80 L120,200" stroke="#e53935" stroke-width="0.7" opacity="0.4" />
    <path d="M0,120 L80,200" stroke="#e53935" stroke-width="0.6" opacity="0.4" />
    <path d="M0,160 L40,200" stroke="#e53935" stroke-width="0.5" opacity="0.4" />
    
    <path d="M40,0 L200,160" stroke="#e53935" stroke-width="0.8" opacity="0.4" />
    <path d="M80,0 L200,120" stroke="#e53935" stroke-width="0.7" opacity="0.4" />
    <path d="M120,0 L200,80" stroke="#e53935" stroke-width="0.6" opacity="0.4" />
    <path d="M160,0 L200,40" stroke="#e53935" stroke-width="0.5" opacity="0.4" />
    
    <!-- Curved connecting strands -->
    <path d="M0,60 C30,50 50,30 60,0" stroke="#e53935" stroke-width="0.5" opacity="0.4" fill="none" />
    <path d="M0,100 C50,80 80,50 100,0" stroke="#e53935" stroke-width="0.5" opacity="0.4" fill="none" />
    <path d="M0,140 C70,110 110,70 140,0" stroke="#e53935" stroke-width="0.5" opacity="0.4" fill="none" />
    <path d="M0,180 C90,140 140,90 180,0" stroke="#e53935" stroke-width="0.5" opacity="0.4" fill="none" />
    
    <!-- Cross connecting strands -->
    <path d="M10,0 C40,40 60,60 100,100" stroke="#e53935" stroke-width="0.5" opacity="0.3" fill="none" />
    <path d="M50,0 C70,30 90,50 120,80" stroke="#e53935" stroke-width="0.5" opacity="0.3" fill="none" />
    <path d="M0,10 C40,40 60,60 100,100" stroke="#e53935" stroke-width="0.5" opacity="0.3" fill="none" />
    <path d="M0,50 C30,70 50,90 80,120" stroke="#e53935" stroke-width="0.5" opacity="0.3" fill="none" />
    
    <!-- Dewdrops -->
    <circle cx="100" cy="100" r="1.5" fill="#e53935" opacity="0.8" />
    <circle cx="50" cy="50" r="1" fill="#e53935" opacity="0.6" />
    <circle cx="150" cy="150" r="1" fill="#e53935" opacity="0.6" />
    <circle cx="25" cy="25" r="0.8" fill="#e53935" opacity="0.5" />
    <circle cx="75" cy="75" r="0.8" fill="#e53935" opacity="0.5" />
    <circle cx="125" cy="125" r="0.8" fill="#e53935" opacity="0.5" />
    <circle cx="175" cy="175" r="0.8" fill="#e53935" opacity="0.5" />
  </g>
</svg> 