<?xml version="1.0" encoding="UTF-8"?>
<svg width="300" height="300" viewBox="0 0 300 300" xmlns="http://www.w3.org/2000/svg">
  <defs>
    <pattern id="web-pattern" x="0" y="0" width="100" height="100" patternUnits="userSpaceOnUse">
      <!-- Center web point -->
      <circle cx="50" cy="50" r="1.5" fill="#e53935" opacity="0.5"/>
      
      <!-- Web strands -->
      <g stroke="#e53935" stroke-width="0.5" fill="none" opacity="0.25">
        <!-- Main strands -->
        <line x1="50" y1="0" x2="50" y2="100"/>
        <line x1="0" y1="50" x2="100" y2="50"/>
        <line x1="0" y1="0" x2="100" y2="100"/>
        <line x1="100" y1="0" x2="0" y2="100"/>
        
        <!-- Concentric web rings -->
        <circle cx="50" cy="50" r="10" />
        <circle cx="50" cy="50" r="20" />
        <circle cx="50" cy="50" r="30" />
        <circle cx="50" cy="50" r="40" />
        <circle cx="50" cy="50" r="50" />
        
        <!-- Connecting strands -->
        <path d="M50,0 C60,10 60,30 50,50 C40,70 40,90 50,100" />
        <path d="M50,0 C40,10 40,30 50,50 C60,70 60,90 50,100" />
        <path d="M0,50 C10,40 30,40 50,50 C70,60 90,60 100,50" />
        <path d="M0,50 C10,60 30,60 50,50 C70,40 90,40 100,50" />
      </g>
    </pattern>
  </defs>
  
  <rect x="0" y="0" width="100%" height="100%" fill="url(#web-pattern)" />
</svg> 