<svg width="100" height="100" viewBox="0 0 100 100" xmlns="http://www.w3.org/2000/svg">
  <path d="M50 5 C45 5 40 10 40 15 C40 20 45 25 50 25 C55 25 60 20 60 15 C60 10 55 5 50 5 Z M30 15 C25 20 20 30 20 40 L30 40 C30 35 35 30 40 30 L40 40 L30 50 L40 60 L40 70 C35 70 30 65 30 60 L20 60 C20 70 25 80 30 85 L30 95 L40 95 L40 85 C45 90 55 90 60 85 L60 95 L70 95 L70 85 C75 80 80 70 80 60 L70 60 C70 65 65 70 60 70 L60 60 L70 50 L60 40 L60 30 C65 30 70 35 70 40 L80 40 C80 30 75 20 70 15 L70 5 L60 5 L60 15 C55 10 45 10 40 15 L40 5 L30 5 Z" fill="#E51C24"/>
</svg>
