<svg width="800" height="400" viewBox="0 0 800 400" xmlns="http://www.w3.org/2000/svg">
  <style>
    .map-dot {
      fill: #ffffff;
      opacity: 0.5;
    }
    .map-dot:hover {
      fill: #E51C24;
      opacity: 1;
    }
    .mumbai-dot {
      fill: #E51C24;
      opacity: 1;
      animation: pulse 2s infinite;
    }
    @keyframes pulse {
      0% { r: 3; opacity: 1; }
      50% { r: 5; opacity: 0.7; }
      100% { r: 3; opacity: 1; }
    }
  </style>
  
  <!-- North America -->
  <g class="continent">
    <circle class="map-dot" cx="130" cy="120" r="3" />
    <circle class="map-dot" cx="150" cy="110" r="3" />
    <circle class="map-dot" cx="170" cy="120" r="3" />
    <circle class="map-dot" cx="190" cy="130" r="3" />
    <circle class="map-dot" cx="120" cy="140" r="3" />
    <circle class="map-dot" cx="140" cy="150" r="3" />
    <circle class="map-dot" cx="160" cy="160" r="3" />
    <circle class="map-dot" cx="180" cy="150" r="3" />
    <circle class="map-dot" cx="130" cy="170" r="3" />
    <circle class="map-dot" cx="150" cy="180" r="3" />
    <circle class="map-dot" cx="170" cy="170" r="3" />
  </g>
  
  <!-- South America -->
  <g class="continent">
    <circle class="map-dot" cx="200" cy="220" r="3" />
    <circle class="map-dot" cx="220" cy="240" r="3" />
    <circle class="map-dot" cx="240" cy="260" r="3" />
    <circle class="map-dot" cx="210" cy="280" r="3" />
    <circle class="map-dot" cx="230" cy="300" r="3" />
    <circle class="map-dot" cx="220" cy="320" r="3" />
    <circle class="map-dot" cx="190" cy="240" r="3" />
    <circle class="map-dot" cx="210" cy="260" r="3" />
  </g>
  
  <!-- Europe -->
  <g class="continent">
    <circle class="map-dot" cx="380" cy="110" r="3" />
    <circle class="map-dot" cx="400" cy="120" r="3" />
    <circle class="map-dot" cx="420" cy="110" r="3" />
    <circle class="map-dot" cx="380" cy="130" r="3" />
    <circle class="map-dot" cx="400" cy="140" r="3" />
    <circle class="map-dot" cx="420" cy="130" r="3" />
    <circle class="map-dot" cx="380" cy="150" r="3" />
    <circle class="map-dot" cx="400" cy="160" r="3" />
    <circle class="map-dot" cx="420" cy="150" r="3" />
  </g>
  
  <!-- Africa -->
  <g class="continent">
    <circle class="map-dot" cx="400" cy="180" r="3" />
    <circle class="map-dot" cx="420" cy="200" r="3" />
    <circle class="map-dot" cx="440" cy="220" r="3" />
    <circle class="map-dot" cx="400" cy="240" r="3" />
    <circle class="map-dot" cx="420" cy="260" r="3" />
    <circle class="map-dot" cx="400" cy="220" r="3" />
    <circle class="map-dot" cx="420" cy="240" r="3" />
    <circle class="map-dot" cx="380" cy="200" r="3" />
  </g>
  
  <!-- Asia -->
  <g class="continent">
    <circle class="map-dot" cx="500" cy="120" r="3" />
    <circle class="map-dot" cx="520" cy="140" r="3" />
    <circle class="map-dot" cx="540" cy="160" r="3" />
    <circle class="map-dot" cx="560" cy="180" r="3" />
    <circle class="map-dot" cx="500" cy="140" r="3" />
    <circle class="map-dot" cx="520" cy="160" r="3" />
    <circle class="map-dot" cx="540" cy="180" r="3" />
    <circle class="map-dot" cx="500" cy="160" r="3" />
    <circle class="map-dot" cx="480" cy="140" r="3" />
    <circle class="map-dot" cx="460" cy="160" r="3" />
    <circle class="map-dot" cx="480" cy="180" r="3" />
    <circle class="map-dot" cx="500" cy="200" r="3" />
    <circle class="map-dot" cx="520" cy="220" r="3" />
    <circle class="map-dot" cx="460" cy="180" r="3" />
    <!-- Mumbai (highlighted) -->
    <circle class="mumbai-dot" cx="546" cy="192" r="5" />
  </g>
  
  <!-- Australia -->
  <g class="continent">
    <circle class="map-dot" cx="650" cy="260" r="3" />
    <circle class="map-dot" cx="670" cy="280" r="3" />
    <circle class="map-dot" cx="690" cy="260" r="3" />
    <circle class="map-dot" cx="650" cy="280" r="3" />
    <circle class="map-dot" cx="670" cy="300" r="3" />
    <circle class="map-dot" cx="630" cy="270" r="3" />
  </g>
  
  <!-- Additional dots to fill the map -->
  <g class="fill">
    <circle class="map-dot" cx="230" cy="140" r="3" />
    <circle class="map-dot" cx="250" cy="160" r="3" />
    <circle class="map-dot" cx="270" cy="180" r="3" />
    <circle class="map-dot" cx="290" cy="120" r="3" />
    <circle class="map-dot" cx="310" cy="140" r="3" />
    <circle class="map-dot" cx="330" cy="160" r="3" />
    <circle class="map-dot" cx="350" cy="180" r="3" />
    <circle class="map-dot" cx="370" cy="120" r="3" />
    <circle class="map-dot" cx="450" cy="140" r="3" />
    <circle class="map-dot" cx="470" cy="120" r="3" />
    <circle class="map-dot" cx="490" cy="100" r="3" />
    <circle class="map-dot" cx="510" cy="120" r="3" />
    <circle class="map-dot" cx="530" cy="100" r="3" />
    <circle class="map-dot" cx="550" cy="120" r="3" />
    <circle class="map-dot" cx="570" cy="140" r="3" />
    <circle class="map-dot" cx="590" cy="160" r="3" />
    <circle class="map-dot" cx="610" cy="140" r="3" />
    <circle class="map-dot" cx="630" cy="160" r="3" />
    <circle class="map-dot" cx="650" cy="140" r="3" />
    <circle class="map-dot" cx="540" cy="200" r="3" />
    <circle class="map-dot" cx="560" cy="220" r="3" />
    <circle class="map-dot" cx="580" cy="200" r="3" />
    <circle class="map-dot" cx="600" cy="220" r="3" />
    <circle class="map-dot" cx="620" cy="200" r="3" />
    <circle class="map-dot" cx="580" cy="240" r="3" />
    <circle class="map-dot" cx="600" cy="260" r="3" />
    <circle class="map-dot" cx="620" cy="240" r="3" />
    <circle class="map-dot" cx="640" cy="220" r="3" />
    <circle class="map-dot" cx="280" cy="260" r="3" />
    <circle class="map-dot" cx="300" cy="280" r="3" />
    <circle class="map-dot" cx="320" cy="260" r="3" />
    <circle class="map-dot" cx="340" cy="280" r="3" />
    <circle class="map-dot" cx="360" cy="260" r="3" />
    <circle class="map-dot" cx="180" cy="200" r="3" />
    <circle class="map-dot" cx="200" cy="180" r="3" />
    <circle class="map-dot" cx="220" cy="200" r="3" />
    <circle class="map-dot" cx="240" cy="180" r="3" />
    <circle class="map-dot" cx="260" cy="200" r="3" />
    <circle class="map-dot" cx="280" cy="180" r="3" />
    <circle class="map-dot" cx="300" cy="200" r="3" />
    <circle class="map-dot" cx="320" cy="180" r="3" />
    <circle class="map-dot" cx="340" cy="200" r="3" />
    <circle class="map-dot" cx="360" cy="180" r="3" />
    <circle class="map-dot" cx="380" cy="200" r="3" />
  </g>
</svg> 